<svg width="34" height="34" viewBox="0 0 34 34" fill="none" xmlns="http://www.w3.org/2000/svg">
<g clip-path="url(#clip0_0_49)">
<path fill-rule="evenodd" clip-rule="evenodd" d="M17 -1C17.2818 -1 17.552 -0.868304 17.7513 -0.633884C17.9506 -0.399463 18.0625 -0.0815206 18.0625 0.25V29.7325L24.7477 21.865C24.9473 21.6303 25.2178 21.4984 25.5 21.4984C25.7821 21.4984 26.0527 21.6303 26.2522 21.865C26.4518 22.0997 26.5638 22.4181 26.5638 22.75C26.5638 23.0819 26.4518 23.4003 26.2522 23.635L17.7522 33.635C17.6536 33.7514 17.5363 33.8438 17.4072 33.9068C17.2781 33.9698 17.1398 34.0022 17 34.0022C16.8602 34.0022 16.7219 33.9698 16.5928 33.9068C16.4637 33.8438 16.3464 33.7514 16.2477 33.635L7.74775 23.635C7.54824 23.4003 7.43616 23.0819 7.43616 22.75C7.43616 22.4181 7.54824 22.0997 7.74775 21.865C7.94726 21.6303 8.21785 21.4984 8.5 21.4984C8.78215 21.4984 9.05274 21.6303 9.25225 21.865L15.9375 29.7325V0.25C15.9375 -0.0815206 16.0494 -0.399463 16.2487 -0.633884C16.448 -0.868304 16.7182 -1 17 -1Z" fill="white"/>
</g>
<defs>
<clipPath id="clip0_0_49">
<rect width="34" height="34" fill="white"/>
</clipPath>
</defs>
</svg>
